# xmcd
#
# Track frame offsets: 
#        150
#        12617
#        25150
#        38422
#        51859
#        64777
#        78063
#        93130
#        108489
#        121242
#        134242
#        147446
#        160809
#        172492
#        184316
#        197083
#        210107
#        224835
#        239940
#        249852
#
# Disc length: 3463 seconds
#
# Revision: 0
# Processed by: cddbd v1.5.2PL0 Copyright (c) Steve Scherf et al.
# Submitted via: ExactAudioCopy v1.0b3
#
DISCID=280d8514
DTITLE=Don Helms - Your Cheatin Heart SongBook
DYEAR=1900
DGENRE=
TTITLE0=01 Your Cheatin Heart
TTITLE1=02 Your Cheatin Heart Rhythm
TTITLE2=03 Hey Good Lookin
TTITLE3=04 Hey Good Lookin Rhythm
TTITLE4=05 Jambalaya
TTITLE5=06 Jambalaya Rhythm
TTITLE6=07 Mansion on the Hill
TTITLE7=08 Mansion on the Hill Rhythm
TTITLE8=09 Take These Chains from my Heart
TTITLE9=10 Take These Chains from my Heart Rhythm
TTITLE10=11 I Saw the Light
TTITLE11=12 I Saw the Light Rhythm
TTITLE12=13 You Win Again
TTITLE13=14 You Win Again Rhythm
TTITLE14=15 Wedding Bells
TTITLE15=16 Wedding Bells Rhythm
TTITLE16=17 Cold Cold Heart
TTITLE17=18 Cold Cold Heart Rhythm
TTITLE18=19 I'm So Lonesome I Could Cry
TTITLE19=20 I'm So Lonesome I Could Cry Rhythm
EXTD=
EXTT0=
EXTT1=
EXTT2=
EXTT3=
EXTT4=
EXTT5=
EXTT6=
EXTT7=
EXTT8=
EXTT9=
EXTT10=
EXTT11=
EXTT12=
EXTT13=
EXTT14=
EXTT15=
EXTT16=
EXTT17=
EXTT18=
EXTT19=
PLAYORDER=
